<?xml version="1.0" encoding="UTF-8" standalone="no"?>
<!-- Created with Inkscape (http://www.inkscape.org/) -->

<svg
   xmlns:dc="http://purl.org/dc/elements/1.1/"
   xmlns:cc="http://creativecommons.org/ns#"
   xmlns:rdf="http://www.w3.org/1999/02/22-rdf-syntax-ns#"
   xmlns:svg="http://www.w3.org/2000/svg"
   xmlns="http://www.w3.org/2000/svg"
   xmlns:sodipodi="http://sodipodi.sourceforge.net/DTD/sodipodi-0.dtd"
   xmlns:inkscape="http://www.inkscape.org/namespaces/inkscape"
   id="svg2"
   version="1.1"
   inkscape:version="0.91 r"
   xml:space="preserve"
   width="320.14771"
   height="217.16797"
   viewBox="0 0 320.14771 217.16797"
   sodipodi:docname="the_bitless_all_u_need_is_code.svg"
   inkscape:export-filename="/home/dennix/Documentos/Design/inkscape-svg/the_bitless_all_u_need_is_code"
   inkscape:export-xdpi="300.04425"
   inkscape:export-ydpi="300.04425"><metadata
     id="metadata8"><rdf:RDF><cc:Work
         rdf:about=""><dc:format>image/svg+xml</dc:format><dc:type
           rdf:resource="http://purl.org/dc/dcmitype/StillImage" /><dc:title></dc:title></cc:Work></rdf:RDF></metadata><defs
     id="defs6" /><sodipodi:namedview
     pagecolor="#ffffff"
     bordercolor="#666666"
     borderopacity="1"
     objecttolerance="10"
     gridtolerance="10"
     guidetolerance="10"
     inkscape:pageopacity="0"
     inkscape:pageshadow="2"
     inkscape:window-width="1366"
     inkscape:window-height="675"
     id="namedview4"
     showgrid="false"
     inkscape:zoom="1.5368491"
     inkscape:cx="89.631687"
     inkscape:cy="150.56325"
     inkscape:window-x="0"
     inkscape:window-y="24"
     inkscape:window-maximized="1"
     inkscape:current-layer="g10" /><g
     id="g10"
     inkscape:groupmode="layer"
     inkscape:label="The_Beatles_AR"
     transform="matrix(1.25,0,0,-1.25,0,217.16797)"><path
       inkscape:connector-curvature="0"
       id="path14"
       style="fill:#231f20;fill-opacity:1;fill-rule:nonzero;stroke:none"
       d="m 256.11816,0 c 0,0 -255.30078,0 -255.30078,0 0,0 0,173.73438 0,173.73438 0,0 255.30078,0 255.30078,0 0,0 0,-173.73438 0,-173.73438 z" /><path
       inkscape:connector-curvature="0"
       id="path16"
       style="fill:#ffffff;fill-opacity:1;fill-rule:nonzero;stroke:none"
       d="m 47.22461,68.97852 c 0,0 1.71094,-0.70313 1.87695,-0.625 0.16797,0.07226 0.12793,0.27539 0.12793,0.27539 0,0 1.03223,-0.86914 1.56543,-0.93946 0.53516,-0.07422 3.53516,-0.16211 4.22071,0.22071 0.68164,0.38867 1.23242,0.92187 0.60449,1.19531 -0.62403,0.2793 -1.83887,0.77734 -2.33692,1.30859 -0.49609,0.53711 -0.81347,0.77539 -0.81347,0.77539 0,0 -0.0166,0.33399 0.49902,1.31055 0.51563,0.97461 0.8125,2.61133 0.83008,3.03711 0.01953,0.42383 -0.08985,1.8418 0.55273,3.02148 0.64453,1.17579 0.69922,1.78516 1.0293,1.97266 0.33398,0.18359 0.77539,0.80664 0.8125,1.08398 0.03613,0.27735 0.44141,1.28907 0.45996,1.36329 0.02051,0.07226 1.73145,4.70117 2.13965,5.50732 0.4043,0.8125 0.95508,2.61328 1.06543,2.70898 0.1123,0.08985 0.37207,0.07227 0.60742,-0.03515 0.24121,-0.11133 0.33008,-0.55274 0.55469,-0.86719 0.22168,-0.31445 2.85644,-4.09131 3.27637,-4.51318 0.4248,-0.42578 0.64746,-1.89649 1.03417,-2.59766 0.3877,-0.70117 0.90235,-1.60351 1.45411,-2.91211 0.55078,-1.30664 3.42578,-7.1289 3.74218,-7.38476 0.31055,-0.25977 0.73438,-0.1836 0.73438,-0.1836 0,0 -0.45899,-0.35156 0.22363,-1.38281 0.67676,-1.03125 0.69922,-1.10547 1.21582,-0.92188 0.5166,0.18555 1.30664,0.46094 1.45508,0.71875 0.14648,0.25782 -0.07422,0.64258 0.14648,0.75391 0.22071,0.11328 1.75196,0.33399 2.24805,0.61133 0.4961,0.27344 1.96875,1.5625 2.48633,2.20898 0.51758,0.64649 0.14844,0.99414 -0.29102,1.01172 -0.44336,0.01953 -1.75195,-0.99414 -2.17773,-0.82617 -0.42285,0.16406 -1.01367,0.44141 -1.01367,0.44141 0,0 0.46094,0.45898 0.46094,0.45898 0,0 -0.46094,0.31445 -0.77149,0.77539 -0.31641,0.46094 -5.21582,6.11328 -5.47363,6.44922 -0.25977,0.33008 -0.29492,0.73047 -0.27832,0.99414 0.01855,0.25391 -0.4043,0.29297 -0.42188,0.5332 -0.01562,0.24024 -0.10937,0.45899 -0.01562,0.71875 0.08984,0.25586 -0.49805,1.41602 -1.25489,2.33985 -0.75488,0.91943 -1.43652,2.41162 -1.54882,3.07568 -0.11035,0.66406 -0.84668,2.96484 -0.84668,2.96484 0,0 0.10937,0.11133 0.18261,0.1836 0.0752,0.07422 0.35059,-0.23828 0.55372,-0.14649 0.20507,0.09375 0.23828,0.14649 0.5166,0.16602 0.27832,0.01953 0.44238,0.16602 0.49902,0.23828 0.05469,0.07422 0.5166,-0.25781 0.90039,-0.18359 0.38672,0.07617 0.23926,0.23828 0.11328,0.39062 -0.13183,0.14258 -0.18554,0.14258 -0.24414,0.36524 -0.05371,0.2207 0.26074,0.10937 0.42676,0.23828 0.16699,0.1289 -0.38867,0.38672 -0.49902,0.64648 -0.11133,0.25586 0.13086,0.60742 -0.4961,0.95508 -0.62695,0.35156 -2.19531,1.49414 -2.34082,1.7168 -0.14355,0.21875 -0.38769,0.4414 -0.38769,0.4414 0,0 0.18457,0.80909 0.64648,1.43702 0.46289,0.62597 0,1.06738 -0.18555,1.26855 -0.18359,0.20605 -0.40332,0.16602 -0.36816,0.22461 0.03906,0.0527 0.20215,0.38672 0.23926,0.51465 0.03711,0.12842 0,0.49512 -0.16406,0.77344 -0.16797,0.27685 -0.53516,0.57128 -0.53516,1.06738 0,0.49512 -0.05469,0.73681 -0.05469,1.14599 0,0.40381 -0.07617,0.38623 0,0.64258 0.07129,0.25733 0.33203,0.79151 0.27735,1.19629 -0.05762,0.40576 0.03515,1.47608 0.03515,1.47608 0,0 0.10938,0.51367 -0.01953,1.00927 -0.12695,0.49903 -0.58691,1.19971 -0.60547,1.67871 -0.01758,0.47705 -0.03808,1.06641 -0.03808,1.51368 0,0.43798 -0.22071,1.0288 0.05664,1.26611 0.27441,0.23926 0.19921,0.75488 0.19921,0.75488 0,0 1.03418,-0.27295 1.292,-0.0713 0.25781,0.20215 0.24121,0.31397 0.16601,0.31397 -0.07519,0 -1.01367,-0.0928 -1.01367,0.019 0,0.11182 0.01953,0.33106 0.18555,0.40479 0.16406,0.0723 0.81054,0.31152 0.81054,0.31152 0,0 -0.44238,0.1123 -0.44238,0.3501 0,0.24121 0.16504,0.35156 0.2207,0.35156 0.05372,0 0.68262,-0.0908 0.88575,0.0542 0.20117,0.14746 -0.31446,0.10986 -0.57129,0.33252 -0.26074,0.22168 -0.27735,0.69824 -0.24121,0.75683 0.03711,0.0542 0.27539,-0.021 0.31445,0.19922 0.03711,0.22266 -0.02148,0.64307 -0.02148,0.99463 0,0.34961 0.03808,0.84668 0.03808,1.52881 0,0.68262 -0.19824,1.38281 -0.44238,1.66064 -0.23828,0.27344 -1.10547,1.2876 -1.91504,1.54932 -0.81055,0.25537 -1.32617,0.14649 -1.32617,0.14649 0,0 -0.90332,0.36816 -1.65918,-0.14649 -0.75293,-0.51953 -2.11524,-2.98682 -2.50293,-3.20996 -0.3877,-0.2207 -0.51856,-0.45996 -0.51856,-0.45996 0,0 0.03907,-0.42285 0.03907,-0.42285 0,0 0,-0.29639 0,-0.29639 0,0 -0.11036,-0.5542 -0.11036,-0.5542 0,0 -0.1289,-0.51269 -0.1289,-0.51269 0,0 0.07129,-0.27735 0.07129,-0.27735 0,0 -0.01563,-0.36279 -0.01563,-0.51318 0,-0.146 0.0918,-0.3501 0.29395,-0.62793 0.2041,-0.27441 0.34668,-0.64746 0.34668,-0.73584 0,-0.0923 0.14844,-0.37256 0.03906,-0.55273 -0.11035,-0.18262 0.01855,-0.46192 0.01855,-0.46192 0,0 -0.44042,-0.35058 -0.81152,-0.67871 -0.36719,-0.33594 -2.09961,-1.82617 -2.20898,-3.20703 -0.10938,-1.38281 -0.16797,-1.91602 0.14648,-2.54492 0.3125,-0.62354 0.18457,-0.36914 0.18457,-0.36914 0,0 0.01856,-1.69287 -0.03711,-2.46485 -0.05371,-0.77734 0.0166,-1.75 0.29297,-2.00927 0.27734,-0.25977 0.37012,-0.49561 0.39063,-0.94092 0.01464,-0.44043 0.1455,-0.71778 0.1455,-0.71778 0,0 0.07227,-0.46191 -0.03515,-0.86425 -0.11035,-0.40625 -0.2041,-0.60938 -0.03906,-0.86621 C 56.12109,99.81636 55.27344,96.40766 55.10742,95.7104 54.94043,95.00727 54.53516,92.46235 54.55273,91.43306 54.57227,90.39985 53.9834,87.54878 53.68848,86.55073 53.39551,85.5605 53.31836,84.98628 53.15234,84.74995 52.9873,84.50776 52.75,84.50776 52.67383,84.21479 c -0.07227,-0.29687 -0.10938,-1.14843 -0.10938,-1.14843 0,0 -0.62695,-0.38086 -0.93945,-1.1211 -0.3125,-0.73633 -2.00977,-3.3125 -2.44922,-4.49414 -0.44336,-1.17773 -1.25488,-2.63476 -1.63769,-3.13086 -0.39112,-0.49609 -0.22364,-1.03125 -0.13184,-1.47461 0.09229,-0.43945 0.24072,-0.67968 0.24072,-0.67968 0,0 -0.51611,-1.17969 -0.5,-1.95313 0.01856,-0.77344 0.07764,-1.23437 0.07764,-1.23437 z" /><path
       inkscape:connector-curvature="0"
       id="path18"
       style="fill:#ffffff;fill-opacity:1;fill-rule:nonzero;stroke:none"
       d="m 81.93164,73.11133 c 0,0 0.64746,-0.57813 1.57129,-0.37891 0.91895,0.19531 1.6084,0.04688 2.18457,-0.33594 0.57813,-0.3789 0.99609,-0.73242 1.63281,-0.70898 0.63867,0.02148 0.62696,0.19336 0.79981,0.13477 0.1748,-0.06446 0.68652,-0.24805 0.9082,-0.12305 0.21973,0.12305 0.76074,0.73633 0.29785,0.84375 -0.4707,0.11328 -0.68847,0.22461 -0.93652,0.45508 -0.24512,0.23437 -0.35742,0.43359 -0.35742,0.43359 0,0 -0.19629,0.40234 -0.19629,0.40234 0,0 1.27734,-0.35351 1.28906,-0.03515 0.01367,0.32226 -0.4873,1.84375 -0.13672,3.04492 0.36035,1.20313 1.72461,4.10156 2.00586,4.71484 0.2793,0.61329 1.4375,3.42774 1.67969,4.04297 0.24414,0.61328 0.6289,1.96485 0.7373,2.24756 0.11133,0.2793 0.27051,0.16016 0.38379,-0.10156 0.10938,-0.25537 1.16406,-2.68506 1.57129,-3.521 0.40527,-0.83593 1.8291,-4.59375 2.79981,-5.77343 0.9707,-1.17969 2.9375,-3.4004 3.38769,-3.94336 0.45801,-0.53711 0.75098,-1.24024 0.87402,-1.57032 0.12305,-0.33007 0.2959,-0.18554 0.2959,-0.18554 0,0 -0.2959,-0.95703 0.2666,-1.42383 0.56739,-0.4668 0.66602,-0.51563 1.71875,-0.49219 1.0586,0.02539 1.73633,0.08594 1.95899,0.04102 0.21875,-0.05469 1.28906,0.46484 1.63086,0.8789 0.34375,0.41992 0.082,0.60547 0.10937,0.78516 0.0254,0.18945 0.39063,0.28711 0.28321,0.41797 -0.10743,0.13672 -0.28321,0.3457 -0.29493,0.4707 -0.0156,0.11914 0.0508,0.39258 -0.25585,0.39258 -0.31055,0 -0.67579,-0.48242 -1.15625,-0.32031 -0.47852,0.1582 -1.64454,0.40625 -1.64454,0.40625 0,0 -0.26171,0.18359 -0.17382,0.27929 0.084,0.09961 2.01757,1.60157 2.01757,1.9668 0,0.37109 -0.55859,0.72461 -0.55859,0.72461 0,0 -1.55859,1.53711 -1.78027,2.07617 -0.21973,0.54102 -1.86621,2.25977 -2.19434,2.64063 -0.33203,0.37695 -1.60156,1.42382 -1.58789,2.01172 0.0156,0.59179 -0.0352,0.875 -0.13184,1.13476 -0.10058,0.25391 -0.13378,0.66211 -0.13378,0.66211 0,0 -0.52149,0.75 -0.52149,1.04297 0,0.29492 -0.44043,0.64844 -0.52539,1.0332 -0.08594,0.37842 -0.44141,0.91944 -0.49023,1.06592 -0.05079,0.14844 -0.6543,1.79297 -0.76172,2.05078 -0.10938,0.25781 -0.20899,1.12891 -0.20899,1.12891 0,0 0.17285,0 0.17285,0 0,0 -0.07324,2.97265 -0.07324,2.97265 0,0 5.37891,0.15039 5.37891,0.15039 0,0 0.29297,0.1211 0.4414,0.16602 0.14844,0.05273 0.34571,0.37109 0.34571,0.59375 0,0.2207 0.34179,-0.07617 0.43945,0.34375 0.10156,0.41602 -0.0732,1.7207 -0.63672,2.28125 -0.5664,0.56836 -0.73633,0.85937 -0.73633,0.85937 0,0 -0.81054,4.71973 -1.47265,5.50391 -0.66699,0.78516 -1.47656,2.28662 -1.99317,3.24512 -0.51757,0.95556 -1.08203,2.08838 -1.35254,3.11767 -0.26757,1.03125 -0.58789,2.1128 -0.51367,2.40723 0.07422,0.29736 0.07422,0.69043 0.07422,0.69043 0,0 -0.31836,0.88281 -0.31836,0.88281 0,0 -0.15039,0.56592 -0.02929,0.6626 0.12695,0.0986 0.4707,0.44141 0.91308,0.36816 0.44043,-0.0727 0.80762,0.39454 0.80762,0.56348 0,0.17236 -0.09863,0.44336 -0.09863,0.44336 0,0 0.12304,0.17188 0.12304,0.17188 0,0 0.02539,0.24755 0.02539,0.24755 0,0 -0.09668,0.14502 -0.09668,0.14502 0,0 0.07129,0.19483 0.07129,0.19483 0,0 0.03809,0.45654 0.0127,0.65429 C 99.75,118.5874 99.75,118.5874 99.75,118.5874 c 0,0 0.36914,-0.023 0.41406,0.0996 0.0557,0.12256 0.11133,0.44238 -0.21777,0.75147 -0.33106,0.30517 -0.42969,0.35205 -0.42969,0.58886 0,0.23145 0,0.38184 0.02442,0.49121 0.02636,0.11084 0.03906,0.38038 0.03906,0.44141 0,0.0601 0.20508,0.33301 0.04492,0.7251 -0.15723,0.3916 -1.08984,1.47314 -2.01172,1.55908 -0.92285,0.0864 -1.69531,0 -1.9043,0.0723 -0.20703,0.0732 -0.66308,0.24707 -0.66308,0.24707 0,0 -0.63965,-0.34375 -0.63965,-0.34375 0,0 -0.66211,0 -1.08203,-0.56446 -0.41406,-0.56787 -1.05274,-2.11328 -1.05274,-2.94629 0,-0.83642 0.34278,-1.52441 0.34278,-2.19043 0,-0.66357 0.1709,-1.42089 0.1709,-1.42089 0,0 0.29687,-0.76123 0.04882,-1.00684 -0.24414,-0.24707 -1.79101,-1.49805 -1.88867,-1.77246 -0.09961,-0.26856 -1.00683,-0.44141 -1.35156,-2.2085 -0.3457,-1.76757 -0.29687,-4.10254 -0.14844,-4.74267 0.14844,-0.63867 0.21875,-2.75196 -0.02246,-3.83106 -0.24902,-1.08008 -0.91113,-4.17529 -1.05762,-5.15771 C 88.2168,96.39797 87.77539,93.5718 88.31445,92.98 c 0.54102,-0.58789 1.1084,-0.26953 1.1084,-0.75781 0,-0.49414 -0.04785,-1.05664 -0.1748,-1.13281 -0.12305,-0.07227 -1.22657,-1.6211 -1.37207,-1.98829 -0.14942,-0.36914 -2.6045,-5.45263 -3.14551,-6.53662 -0.53906,-1.07812 -1.77051,-4.56445 -2.23438,-5.28125 -0.46875,-0.70898 -1.0332,-1.91406 -1.0332,-2.20507 0,-0.29493 0.22266,-0.29493 0.22266,-0.29493 0,0 -0.09766,-1.13281 0,-1.35156 0.09961,-0.2207 0.24609,-0.32031 0.24609,-0.32031 z" /><path
       inkscape:connector-curvature="0"
       id="path20"
       style="fill:#ffffff;fill-opacity:1;fill-rule:nonzero;stroke:none"
       d="m 112.64063,73.0625 c 0,0 -0.24415,-0.66602 -0.26954,-1.18164 -0.0254,-0.51758 -0.10156,-0.51758 -0.10156,-0.51758 0,0 0.83789,-0.7832 0.83789,-0.7832 0,0 0.39453,0.27148 0.39453,0.27148 0,0 0.46485,-1.15234 0.90821,-1.55078 0.4414,-0.39258 3.11718,-0.7832 3.87695,-0.63672 0.76758,0.14844 1.42969,0.44141 0.98437,0.8125 -0.44335,0.36328 -1.25195,0.75977 -1.49609,1.05274 -0.24805,0.29492 -0.19531,0.51953 0.12305,0.81445 0.3164,0.29492 1.4707,2.25977 1.74023,3.09375 0.27344,0.83398 2.31055,4.17383 2.87696,5.10938 0.56445,0.92773 2.01562,3.43945 2.89843,4.44726 0.88477,1.00391 0.90821,1.93945 1.12891,2.45508 0.22266,0.51367 0.5918,0.98047 0.9375,1.0293 0.3418,0.05078 1.08008,0.10351 1.08008,0.10351 0,0 1.46777,-2.30859 1.74121,-3.17187 0.26758,-0.86133 3.73047,-9.70313 4.10156,-10.09571 0.36523,-0.39257 0.24805,-0.71093 0.36523,-1.08203 0.125,-0.36719 0.51954,-0.85742 0.51954,-0.85742 0,0 0.66015,-0.8125 0.58984,-1.32617 -0.0742,-0.51953 0.0977,-0.93555 0.0977,-0.93555 0,0 1.79296,-0.41406 1.93945,-0.31836 0.14648,0.09961 0.125,0.39063 0.125,0.39063 0,0 2.67969,0.66601 3.5625,0.86328 0.88476,0.19336 1.74219,0.63867 1.83789,1.00781 0.10156,0.36524 -0.24414,0.85938 -0.41797,0.85938 -0.16992,0 -1.67187,-0.41602 -2.16016,-0.27149 -0.49023,0.14844 -1.74023,0.83594 -1.64453,1.00586 0.0977,0.17383 1.79297,1.35156 1.79297,1.35156 0,0 -2.65429,4.71485 -3.36523,5.57618 -0.71289,0.85937 -0.83399,1.64257 -1.42383,1.86718 -0.5918,0.21875 -0.91016,0.63672 -0.88477,0.98047 0.0234,0.3457 -0.93359,3.93164 -1.49804,4.69287 -0.56446,0.76172 -0.88672,1.91602 -1.05664,2.28125 -0.17383,0.3711 -0.29102,2.89844 -0.29102,2.89844 0,0 0.75781,-0.93359 0.875,-0.95508 0.12695,-0.02734 0.61719,0.16992 0.61719,0.16992 0,0 0.39453,-0.3164 0.64258,-0.78515 0.24414,-0.4668 0.46679,-0.80664 0.58789,-0.90625 0.12304,-0.09961 0.12304,-0.29492 0.29297,-0.47071 0.16992,-0.16992 0.51953,-0.0957 0.51953,-0.0957 0,0 -0.0273,-0.39453 0.36523,-0.36914 0.39453,0.02344 0.32227,-0.07422 0.54102,0.05078 0.22265,0.11914 0.0273,0.24414 0.29492,0.3457 0.26953,0.09766 0.26953,0.36524 0.32226,0.53907 0.0488,0.16797 0.21875,0.16797 0.31641,0.41601 0.0977,0.2461 -0.26758,0.73438 -0.36914,1.00782 -0.0977,0.26757 -0.0742,0.63867 -0.43945,0.80859 -0.36914,0.17383 -1.25391,1.12891 -1.38086,1.15625 -0.1211,0.01953 -0.85547,1.19922 -1.71289,2.08789 -0.86524,0.88281 -1.2793,1.66992 -1.47266,1.96484 -0.20312,0.29493 -0.30078,0.39453 -0.30078,0.73633 0,0.34375 -0.0215,0.93408 0.30078,1.44971 0.31641,0.51465 0.33594,1.64746 0.0918,2.03955 -0.24219,0.39258 -0.46289,0.36768 -0.46289,1.12646 0,0.76514 0.24414,2.13965 0.0977,2.90137 -0.14648,0.76123 -0.14648,1.54639 -0.14648,1.54639 0,0 -0.58789,1.18164 -0.71484,1.99023 -0.125,0.81055 -0.2461,1.07959 -0.2461,1.15528 0,0.0723 -0.0508,0.88134 -0.0977,1.05761 -0.0488,0.16944 0.21875,0.36475 0.21875,0.61084 0,0.24659 0.19921,0.54151 0.19921,0.54151 0,0 1.2793,0.0259 1.2793,0.78515 0,0.76172 0,0.58741 0.11719,0.66553 0.125,0.0698 0.125,0.31836 0.125,0.31836 0,0 0.17578,0.0493 0.10156,0.24707 -0.0781,0.19531 -0.10156,0.41553 -0.10156,0.41553 0,0 0.61719,0.0752 0.59375,0.39404 -0.0293,0.31836 -0.44727,0.76025 -0.51563,1.17871 -0.0781,0.41602 -0.125,0.90723 -0.125,0.90723 0,0 0.2461,-0.2461 0.29493,0.24609 0.0488,0.4917 -0.0527,1.45117 -0.47071,2.01612 -0.41797,0.56347 -0.92773,0.51513 -1.08008,0.51513 -0.14648,0 -0.7832,0.0483 -1.10546,0.0483 -0.31641,0 -1.00098,-0.0483 -1.27247,-0.1001 -0.27148,-0.0478 -0.95898,-0.17041 -1.59765,-0.8081 -0.63867,-0.63916 -1.4961,-1.8457 -1.4961,-2.23438 0,-0.39502 0.0977,-1.20654 0.0684,-1.57373 -0.0254,-0.36816 -0.29101,-0.66357 -0.29101,-0.66357 0,0 0.125,-0.34131 0.125,-0.34131 0,0 0.0195,-0.56543 0.0195,-0.56543 0,0 0.14648,-0.4165 0,-0.6167 -0.14453,-0.19287 0.0293,-0.31543 0.0293,-0.31543 0,0 0.36523,-0.39551 0.36523,-0.39551 0,0 -0.17187,-0.71386 -0.19531,-0.83252 -0.0234,-0.12255 -1.27539,-1.03369 -1.47461,-1.74707 -0.19727,-0.71337 -0.88281,-0.93359 -0.83594,-2.94677 0.0527,-2.0127 -0.0723,-3.36573 -0.17383,-4.10254 -0.0976,-0.73633 0.12696,-1.4502 -0.2207,-2.04248 -0.33984,-0.58594 -0.58789,-2.47608 -0.73437,-3.28858 -0.14649,-0.80859 -0.9336,-4.0039 -1.84375,-4.57031 -0.90821,-0.56445 -1.69336,-2.79687 -2.08594,-2.89453 -0.39453,-0.09961 0.29297,-0.46875 0.36914,-0.46875 0.0742,0 0.17383,-0.26758 0.41797,-0.80664 0.24023,-0.54297 0.95703,-1.45313 1.42187,-1.64844 0.47071,-0.19726 0.86133,-0.39258 0.86133,-0.39258 0,0 0,-1.50146 -0.56641,-1.7456 -0.56445,-0.2461 -0.27148,-0.85938 -0.81054,-1.52344 -0.53907,-0.66016 -3.6836,-5.25586 -4.17578,-6.06836 -0.49024,-0.81055 -2.74805,-3.83008 -3.16602,-4.19336 -0.41406,-0.37109 -0.46875,-0.71875 -0.46875,-0.71875 0,0 0.14453,-0.0957 0.14453,-0.0957 0,0 -0.3164,-0.39258 -0.3164,-0.39258 z" /><path
       inkscape:connector-curvature="0"
       id="path22"
       style="fill:#ffffff;fill-opacity:1;fill-rule:nonzero;stroke:none"
       d="m 147.2334,74.41406 c 0,0 -0.95899,-0.88476 -1.03125,-1.54883 -0.0781,-0.6621 1.03125,-1.95117 1.39844,-2.61523 0.37109,-0.66406 0.77539,-1.54687 1.69531,-2.32227 0.92187,-0.77539 3.27734,-0.625 3.7207,-0.36914 0.44336,0.26172 0.55469,1.10547 -0.44336,1.47657 -0.99219,0.36523 -0.95703,0.66406 -1.13867,0.99218 -0.1875,0.33204 -0.1875,0.48047 -0.1875,0.5918 0,0.10742 -0.14648,0.51563 0.0371,0.66406 0.18555,0.14649 0.29687,0.29102 0.29687,0.29102 0,0 0.66211,-0.21875 0.95508,0.26172 0.29492,0.47851 1.43946,2.39258 2.80078,4.16211 1.36524,1.76953 2.46875,2.21093 2.875,2.94922 0.4043,0.73437 2.83594,1.98632 3.79297,4.16406 0.96094,2.16992 2.39649,4.08398 2.39649,4.30664 0,0.2207 0.40429,-0.51367 0.88281,-1.87695 0.47852,-1.36133 0.44336,-2.35938 0.70508,-2.83789 0.2539,-0.48243 0.36719,-0.88477 0.43945,-1.25391 0.0723,-0.36914 0.33008,-0.81055 0.36914,-1.62109 0.0352,-0.81055 0.11133,-2.39649 0.4043,-3.31055 0.29297,-0.92774 0.77344,-2.77149 0.91992,-3.87305 0.15039,-1.10351 0.44336,-2.21289 0.44336,-2.80078 0,-0.58984 0.33008,-0.625 0.77734,-0.58984 0.4375,0.03906 0.4375,0.03906 0.4375,0.03906 0,0 -0.4375,-0.92188 0.0742,-1.36524 0.51563,-0.4414 1.14258,-0.4414 1.77149,-0.36914 0.62109,0.07618 0.91797,-0.10937 1.24804,0.11329 0.33594,0.21875 0.66602,0.21875 1.14649,0.21875 0.47461,0 1.94922,-0.1836 2.83789,0.11132 0.88086,0.29883 1.17773,0.51563 0.99219,1.2168 -0.18555,0.69922 -1.58594,0.55273 -2.20899,0.66406 -0.62695,0.10938 -1.80859,0.54883 -1.80859,0.77149 0,0.22461 0.14648,0.29687 0.14648,0.29687 0,0 0.041,0.25586 -0.0684,0.62305 -0.11133,0.37109 -0.88672,4.0918 -0.99804,4.60742 -0.11133,0.51563 -1.43555,6.1543 -1.73243,7.40625 -0.29492,1.25195 -1.51171,5.3042 -1.76562,5.89404 -0.26172,0.58985 -0.51953,2.65235 -0.84961,3.12891 -0.33203,0.48437 -0.36914,0.88672 -0.36914,0.88672 0,0 0.22266,1.8789 0.14844,3.06055 -0.0723,1.17773 -0.4043,2.5039 -0.4043,3.01709 0,0.51855 0.51172,1.03613 0.47852,1.44043 -0.0371,0.40527 -0.0371,1.0708 0.0332,1.62109 0.0781,0.55469 1.18164,1.91455 1.14453,3.82959 -0.0352,1.91846 -0.14648,3.24316 -0.33203,3.9834 -0.1836,0.73584 -0.44141,2.31884 -0.44141,2.31884 0,0 1.25391,0.62452 1.35742,1.25049 0.11524,0.62793 -0.14257,0.92334 -0.14257,1.40479 0,0.47656 0.18945,0.69678 0.18945,0.69678 0,0 0.14648,0.33252 0.14648,0.33252 0,0 0.0684,0.2207 0.0684,0.2207 0,0 0.51953,-0.11133 0.48047,0.36816 -0.0371,0.47852 -0.54883,0.77344 -0.40234,1.25293 0.14453,0.47949 0.14453,0.58985 0.14453,0.84766 0,0.25683 -0.25586,1.25488 -0.25586,1.25488 0,0 0.14844,0.80957 -0.55469,1.65381 -0.69726,0.8501 -0.77344,0.99756 -1.43554,1.2168 -0.66211,0.22021 -2.8379,0.36914 -3.4668,-0.0728 -0.625,-0.44189 -1.80274,-2.35937 -2.35547,-2.68847 -0.55469,-0.33643 -1.17773,-1.62207 -1.36328,-1.99073 -0.18555,-0.36767 -0.62695,-1.36425 -0.77149,-1.73242 -0.14843,-0.36767 -0.14843,-1.7334 -0.14843,-2.31885 0,-0.59179 0.18164,-1.21582 -0.0781,-1.47558 -0.25781,-0.25781 -1.03125,-1.18164 -1.13867,-1.65723 -0.10938,-0.47949 -0.25781,-1.95459 -0.1875,-2.54346 0.0781,-0.58984 -0.14258,-1.39892 -0.4043,-1.98828 -0.25781,-0.59033 -0.33008,-1.29101 -0.2207,-1.99072 0.11328,-0.70264 0.73633,-1.36475 0.85156,-1.69727 0.10742,-0.32812 -0.96289,-2.68847 -1.4375,-3.31347 -0.48242,-0.62744 -3.46484,-5.70947 -3.76172,-5.86182 -0.29687,-0.14453 0.44336,-0.95703 0.84961,-1.06445 0.40039,-0.11328 1.54492,-0.51758 2.32032,-0.44141 0.77343,0.07031 1.10546,0.62305 1.29101,0.8086 0.18555,0.18359 0.95703,-0.51758 1.36133,-0.88477 0.4082,-0.36719 0.51758,-0.36719 0.51758,-0.36719 0,0 -1.95313,-4.64404 -1.99219,-5.52881 -0.0371,-0.88281 -0.81055,-1.4375 -1.14258,-1.76757 -0.32617,-0.33008 -2.57812,-1.87696 -3.01953,-2.65235 -0.44336,-0.77148 -2.58203,-2.65234 -3.42969,-3.57617 -0.84375,-0.91992 -3.01758,-3.01562 -3.42578,-3.24219 -0.4043,-0.21679 -0.17969,-0.54882 -0.17969,-0.54882 0,0 0.14649,-0.25782 0.14649,-0.25782 z" /><path
       inkscape:connector-curvature="0"
       id="path24"
       style="fill:#ffffff;fill-opacity:1;fill-rule:nonzero;stroke:none"
       d="m 2.76563,50.53125 c 0,0 21.10839,0 21.10839,0 0,0 46.08789,37.76123 46.08789,37.76123 0,0 -13.37988,0 -13.37988,0 0,0 -53.8164,-37.76123 -53.8164,-37.76123 z" /><path
       inkscape:connector-curvature="0"
       id="path26"
       style="fill:#ffffff;fill-opacity:1;fill-rule:nonzero;stroke:none"
       d="m 42.90674,50.53125 c 0,0 36.57178,37.76123 36.57178,37.76123 0,0 12.18945,0 12.18945,0 0,0 -25.86719,-37.76123 -25.86719,-37.76123 0,0 -22.89404,0 -22.89404,0 z" /><path
       inkscape:connector-curvature="0"
       id="path28"
       style="fill:#ffffff;fill-opacity:1;fill-rule:nonzero;stroke:none"
       d="m 85.42383,50.53125 c 0,0 18.73437,37.76123 18.73437,37.76123 0,0 11.29883,0 11.29883,0 0,0 -5.22461,-37.76123 -5.22461,-37.76123 0,0 -24.80859,0 -24.80859,0 z" /><path
       inkscape:connector-curvature="0"
       id="path30"
       style="fill:#ffffff;fill-opacity:1;fill-rule:nonzero;stroke:none"
       d="m 130.3252,50.53125 c 0,0 -3.86426,37.76123 -3.86426,37.76123 0,0 13.07715,0 13.07715,0 0,0 16.35742,-37.76123 16.35742,-37.76123 0,0 -25.57031,0 -25.57031,0 z" /><path
       inkscape:connector-curvature="0"
       id="path32"
       style="fill:#ffffff;fill-opacity:1;fill-rule:nonzero;stroke:none"
       d="m 175.52051,50.53125 c 0,0 -25.57422,37.76123 -25.57422,37.76123 0,0 13.67773,0 13.67773,0 0,0 35.08789,-37.76123 35.08789,-37.76123 0,0 -23.1914,0 -23.1914,0 z" /><path
       inkscape:connector-curvature="0"
       id="path34"
       style="fill:#ffffff;fill-opacity:1;fill-rule:nonzero;stroke:none"
       d="m 221.5498,51.12695 c 0,0 -46.92187,37.16553 -46.92187,37.16553 0,0 13.08008,0 13.08008,0 0,0 67.03125,-37.2749 67.03125,-37.2749 0,0 -33.18946,0.10937 -33.18946,0.10937 z" /><g
       id="g36"><text
         xml:space="preserve"
         style="font-style:normal;font-variant:normal;font-weight:normal;font-stretch:normal;font-size:32px;line-height:125%;font-family:FreeSerif;-inkscape-font-specification:FreeSerif;letter-spacing:0px;word-spacing:0px;fill:#ffffff;fill-opacity:1;stroke:none;stroke-width:1px;stroke-linecap:butt;stroke-linejoin:miter;stroke-opacity:1;"
         x="2.0821798"
         y="-18.739647"
         id="text12761"
         sodipodi:linespacing="125%"
         transform="scale(1,-1)"><tspan
           sodipodi:role="line"
           id="tspan12763"
           x="2.0821798"
           y="-18.739647"
           style="font-size:30px;-inkscape-font-specification:BOOTLE;font-family:BOOTLE;font-weight:normal;font-style:normal;font-stretch:normal;font-variant:normal">All you need is <tspan
   style="fill:#ff6600"
   id="tspan12765">Code</tspan></tspan></text>
</g><g
       id="g12777"
       transform="matrix(0.6851888,0,0,0.6851888,75.232951,57.858207)"><text
         transform="scale(1,-1)"
         sodipodi:linespacing="125%"
         id="text12767"
         y="-142.48834"
         x="177.44559"
         style="font-style:normal;font-variant:normal;font-weight:normal;font-stretch:normal;font-size:27.9702549px;line-height:125%;font-family:FreeSerif;-inkscape-font-specification:FreeSerif;letter-spacing:0px;word-spacing:0px;fill:#b3b3b3;fill-opacity:1;stroke:none;stroke-width:1px;stroke-linecap:butt;stroke-linejoin:miter;stroke-opacity:1"
         xml:space="preserve"><tspan
           style="font-style:normal;font-variant:normal;font-weight:normal;font-stretch:normal;font-family:BOOTLE;-inkscape-font-specification:BOOTLE;fill:#b3b3b3"
           y="-142.48834"
           x="177.44559"
           id="tspan12769"
           sodipodi:role="line">the</tspan><tspan
           style="font-style:normal;font-variant:normal;font-weight:normal;font-stretch:normal;font-family:BOOTLE;-inkscape-font-specification:BOOTLE;fill:#b3b3b3"
           id="tspan12771"
           y="-107.52552"
           x="177.44559"
           sodipodi:role="line" /></text>
<text
         transform="scale(1,-1)"
         sodipodi:linespacing="125%"
         id="text12773"
         y="-117.12275"
         x="149.91713"
         style="font-style:normal;font-variant:normal;font-weight:normal;font-stretch:normal;font-size:32px;line-height:125%;font-family:FreeSerif;-inkscape-font-specification:FreeSerif;letter-spacing:0px;word-spacing:0px;fill:#b3b3b3;fill-opacity:1;stroke:none;stroke-width:1px;stroke-linecap:butt;stroke-linejoin:miter;stroke-opacity:1"
         xml:space="preserve"><tspan
           style="font-style:normal;font-variant:normal;font-weight:normal;font-stretch:normal;font-family:BOOTLE;-inkscape-font-specification:BOOTLE;fill:#b3b3b3"
           y="-117.12275"
           x="149.91713"
           id="tspan12775"
           sodipodi:role="line">BiTLess</tspan></text>
</g><text
       xml:space="preserve"
       style="font-style:normal;font-variant:normal;font-weight:normal;font-stretch:normal;font-size:32px;line-height:125%;font-family:FreeSerif;-inkscape-font-specification:FreeSerif;letter-spacing:0px;word-spacing:0px;fill:#000000;fill-opacity:1;stroke:none;stroke-width:1px;stroke-linecap:butt;stroke-linejoin:miter;stroke-opacity:1"
       x="208.73877"
       y="-5.726006"
       id="text12784"
       sodipodi:linespacing="125%"
       transform="scale(1,-1)"><tspan
         sodipodi:role="line"
         id="tspan12786"
         x="208.73877"
         y="-5.726006" /></text>
</g></svg>